<?xml version="1.0" encoding="utf-8"?>
<!-- Generator: Adobe Illustrator 25.0.1, SVG Export Plug-In . SVG Version: 6.00 Build 0)  -->
<svg version="1.1" xmlns="http://www.w3.org/2000/svg" xmlns:xlink="http://www.w3.org/1999/xlink" x="0px" y="0px"
	 viewBox="0 0 100 22" style="enable-background:new 0 0 100 22;" xml:space="preserve">
<style type="text/css">
	.st0{display:none;}
	.st1{display:inline;}
	.st2{fill:#DCE1EC;}
	.st3{fill:#4F9FEE;}
	.st4{fill:#3D8AD5;}
	.st5{fill:#2D7BC5;}
	.st6{fill:#1D3D6B;}
</style>
<g id="svg1132" xmlns:cc="http://creativecommons.org/ns#" xmlns:dc="http://purl.org/dc/elements/1.1/" xmlns:inkscape="http://www.inkscape.org/namespaces/inkscape" xmlns:rdf="http://www.w3.org/1999/02/22-rdf-syntax-ns#" xmlns:sodipodi="http://sodipodi.sourceforge.net/DTD/sodipodi-0.dtd" xmlns:svg="http://www.w3.org/2000/svg" class="st0">
	<defs  class="st1">
		
			<inkscape:path-effect  apply_no_radius="true" apply_with_radius="true" chamfer_steps="1" effect="fillet_chamfer" flexible="false" hide_knots="false" id="path-effect1836" is_visible="true" lpeversion="1" method="auto" mode="F" only_selected="true" radius="1" satellites_param="F,0,0,1,0,0,0,1 @ F,0,1,1,0,0.26458333,0,1 @ F,0,1,1,0,0.26458333,0,1 @ F,0,0,1,0,0,0,1 @ F,0,0,1,0,0,0,1 @ F,0,0,1,0,0,0,1 @ F,0,0,1,0,0,0,1 @ F,0,0,1,0,0,0,1 @ F,0,0,1,0,0,0,1" unit="px" use_knot_distance="true">
			</inkscape:path-effect>
	</defs>
	
		<sodipodi:namedview  bordercolor="#666666" borderopacity="1.0" id="base" inkscape:current-layer="layer1" inkscape:cx="29.382824" inkscape:cy="2.9469558" inkscape:document-rotation="0" inkscape:document-units="mm" inkscape:pageopacity="0.0" inkscape:pageshadow="2" inkscape:window-height="1027" inkscape:window-maximized="1" inkscape:window-width="1920" inkscape:window-x="1912" inkscape:window-y="-8" inkscape:zoom="4.7556835" pagecolor="#ffffff" showgrid="false" units="px">
		</sodipodi:namedview>
	<g id="layer1" inkscape:groupmode="layer" inkscape:label="Layer 1" class="st1">
		<g id="g1811">
			<g id="g1822" transform="matrix(0.37563903,0,0,0.37563903,-64.288753,-32.575173)">
				<g id="g1810">
					<g id="g1804">
						<g id="g1800" transform="translate(-0.108475,-0.0784345)">
							<path id="path1796" class="st2" d="M265,114.3c0-1.3-1-2.3-2.3-2.3h-3v8.1h1.3v-3.5h1.7C264,116.7,265,115.6,265,114.3z
								 M263.8,114.3c0,0.6-0.4,1.2-1.1,1.2H261v-2.4h1.7C263.3,113.2,263.8,113.7,263.8,114.3L263.8,114.3z"/>
							<path id="path1798" class="st2" d="M271.8,112l-2.3,3l-2.3-3h-1.6l3.2,4.2v3.9h1.3v-3.9l3.2-4.2H271.8z"/>
						</g>
						<path id="path1802" class="st2" d="M281.4,116c0-8.3-6.7-15-15-15s-15,6.7-15,15s6.7,15,15,15S281.4,124.3,281.4,116z
							 M278.4,116c0,6.8-5.4,12.3-12,12.3c-6.6,0-12-5.5-12-12.3s5.4-12.3,12-12.3C273,103.7,278.4,109.2,278.4,116z"/>
					</g>
					<path id="path1806" class="st2" d="M307.8,101.8h-3v23.4l-15.4-23.4h-3v28.5h3v-23.4l15.4,23.4h3V101.8z"/>
					<path id="path1808" class="st2" d="M329.6,127.6h-12.7v-10.2h11.6v-2.7h-11.6v-10.2h12.7v-2.7h-15.8v28.5h15.8V127.6z"/>
				</g>
				<g id="g1820">
					<path id="path1812" class="st3" d="M358.2,116c0-7.8-6.3-14.2-14.2-14.2h-9.9v28.5h9.9C351.9,130.2,358.2,123.9,358.2,116z
						 M351.7,116c0,4.4-3.6,8-8,8h-3v-16h3C348.1,108,351.7,111.6,351.7,116z"/>
					<path id="path1814" class="st3" d="M377.4,101.8h-6.8l-10.8,28.5h6.9l1.5-4h11.5l1.5,4h7L377.4,101.8z M370.5,120l3.5-9.1
						l3.4,9.1H370.5z"/>
					<path id="path1816" class="st3" d="M402.3,118.7c3.5-1.1,6.1-4.4,6.1-8.3c0-4.8-3.9-8.7-8.7-8.7h-9.4v28.5h6.5v-8l6.3,8h8.1
						L402.3,118.7z M401.9,110.5c0,1.6-0.9,2.5-2.1,2.5h-2.8V108h2.8C401,108,401.9,108.9,401.9,110.5z"/>
					<path id="path1818" class="st3" d="M426.7,101.8l-7.6,9v-9h-6.5v28.5h6.5v-8.8l7.5,8.8h8.2L422.8,116l12.1-14.3H426.7z"/>
				</g>
			</g>
			<g id="g1790">
				<path id="path1824" sodipodi:nodetypes="ssccssssccss" class="st3" d="M22.8,9.7c0-5.3-4.3-9.7-9.7-9.7H6.7v19.4h6.4
					C18.5,19.4,22.8,15.1,22.8,9.7z M18.3,9.7c0,3-2.4,5.5-5.5,5.5h-4V4.2h4C15.9,4.2,18.3,6.7,18.3,9.7z"/>
				<path id="path1826" sodipodi:nodetypes="cccsccccccccc" class="st4" d="M7.7,0L6.4,0v4.1c0.7,0,1.3,0.6,1.3,1.3v14h3.9
					c0.4-0.8,0.6-1.7,0.5-2.6v-1.7H8.8V4.2h3.3C11.8,2,10,0.2,7.7,0L7.7,0z"/>
				<path id="path1828" sodipodi:nodetypes="cccsccccccccc" class="st5" d="M7,0L6.4,0v4.1c0.7,0,1.3,0.6,1.3,1.3v14h3.2
					c0.4-0.8,0.6-1.7,0.5-2.6v-1.7H8.2V4.2h3.3C11.2,2,9.1,0,7,0L7,0z"/>
				
					<path id="path1830" inkscape:original-d="M 1.6877949,2.2554433e-6 1.1470667,0.00944201 0.10799299,1.0937135 1.3453905,1.0924815 c 0.1890319,-2.581e-4 0.3424044,0.152908 0.3424044,0.3419373 V 5.8208335 C 2.3912578,5.7679015 2.9185985,5.1546923 2.8656498,4.4512261 V 1.3696243 C 2.9185792,0.66616151 2.3912578,0.05296662 1.6877949,1.5103439e-5 Z" inkscape:path-effect="#path-effect1836" sodipodi:nodetypes="ccccccccsc" class="st2" d="
					M6.4,0l-1,0C4.7,0,4.1,0.3,3.6,0.8L1.1,3.4C0.9,3.6,0.9,3.9,1.1,4c0.1,0.1,0.2,0.1,0.3,0.1l3.7,0c0.7,0,1.3,0.6,1.3,1.3V22
					c2.7-0.2,4.7-2.5,4.5-5.2V5.2C11,2.5,9,0.2,6.4,0L6.4,0z"/>
			</g>
		</g>
	</g>
</g>
<g id="SIne_Tool">
	<g>
		<path class="st2" d="M35.1,16.1c0.3,0.1,0.6,0.2,0.8,0.3c0.3,0.1,0.6,0.1,0.9,0.1c0.8,0,1.4-0.2,1.8-0.5c0.4-0.3,0.7-0.8,0.7-1.3
			c0-0.7-0.6-1.5-1.7-2.4l0,0c0,0,0,0-0.1-0.1C35.8,11,35,9.9,35,8.9c0-0.5,0.1-0.9,0.3-1.3c0.2-0.4,0.5-0.8,0.9-1.2
			c0.6-0.5,1.2-0.9,1.8-1.2c0.7-0.3,1.3-0.4,2-0.4c0.5,0,0.9,0.1,1.1,0.2c0.2,0.2,0.4,0.4,0.4,0.7c0,0.1,0,0.3-0.1,0.4
			c-0.1,0.2-0.2,0.4-0.4,0.6c-0.2-0.1-0.5-0.2-0.8-0.2c-0.3-0.1-0.5-0.1-0.8-0.1c-0.8,0-1.5,0.2-1.9,0.5c-0.5,0.4-0.7,0.8-0.7,1.5
			c0,0.4,0.1,0.7,0.3,1c0.2,0.3,0.5,0.7,1.1,1.1c0.1,0.1,0.2,0.2,0.3,0.3c1.7,1.4,2.6,2.6,2.6,3.6c0,0.4-0.1,0.7-0.2,1.1
			c-0.1,0.4-0.3,0.7-0.6,1.1c-0.5,0.6-1,1-1.7,1.3c-0.7,0.3-1.4,0.5-2.2,0.5c-0.5,0-1-0.1-1.2-0.3c-0.3-0.2-0.4-0.5-0.4-0.8
			c0-0.2,0-0.3,0.1-0.5S35,16.3,35.1,16.1z"/>
		<path class="st2" d="M45,7.2v11h-1.5v-11H45z"/>
		<path class="st2" d="M47.6,18.2v-11h1.6l3.6,5.6c0.8,1.3,1.5,2.5,2,3.6l0,0c-0.1-1.5-0.2-2.8-0.2-4.5V7.2h1.4v11h-1.5L51,12.6
			c-0.8-1.2-1.6-2.5-2.1-3.7l-0.1,0c0.1,1.4,0.1,2.7,0.1,4.5v4.7H47.6z"/>
		<path class="st2" d="M64.6,13h-4.4v4h4.9v1.2h-6.4v-11h6.1v1.2h-4.7v3.5h4.4V13z"/>
	</g>
	<g>
		<g>
			<path class="st3" d="M13.8,7.9l0.7,0.2c0.2,0.1,0.4,0.1,0.6,0.2c0.2,0.1,0.3,0.1,0.4,0.1c0.1,0,0.2,0.1,0.4,0.1
				c3.2,0.9,5.2,1.6,6,2.2c0.4,0.3,0.7,0.6,1,1.1c0.9,1.6,1.3,2.8,1.3,3.7c0,0.6-0.2,1.2-0.6,1.6c-0.4,0.4-0.9,0.7-1.4,0.7
				c-1,0-2.9-0.5-5.7-1.6c-0.9-0.3-1.6-0.6-2.3-0.9c-0.6-0.3-1.4-0.6-2.2-1c-0.8-0.4-1.7-0.8-2.6-1.3c-0.9-0.5-1.6-0.8-1.9-1
				c0.2,1.7,0.3,3.3,0.3,4.8c0,1.5-0.4,2.3-1.3,2.3c-0.6,0-1.3-0.5-2.2-1.5c-0.6-0.7-1-1.3-1.2-1.9c-0.2-0.6-0.3-1.3-0.3-2.1
				c0-0.5,0-1.3,0-2.2c0-0.9,0.1-2.2,0.2-3.8l0-0.5l0-0.5C3,5.2,3.1,4.3,3.2,3.8C3.3,3.4,3.4,3,3.7,2.7c0.2-0.3,0.5-0.4,0.8-0.4
				c0.3,0,0.7,0.1,1,0.2c0.3,0.2,0.6,0.3,0.8,0.6C6.6,3.5,6.8,4.4,7,5.8c0,0.1,0,0.3,0,0.4l0.1,0.4C7.4,6.3,7.7,6.1,8,6.1
				c0.3,0,0.9,0.2,1.9,0.5c0.2,0.1,1,0.4,2.4,0.8l0.9,0.3L13.8,7.9z"/>
		</g>
		<g>
			<path class="st6" d="M6.4,5C6,5,5.7,5.3,5.5,5.8S5.2,7.1,5.2,8.2c0,1.5,0.2,2.9,0.6,4.3c0.4,1.4,0.9,2.7,1.6,3.9
				c0.1,0.2,0.3,0.4,0.4,0.6c0-0.1,0-0.1,0-0.2c0-1.5-0.1-3.1-0.3-4.8c0.1,0,0.2,0.1,0.3,0.2c-0.2-0.8-0.3-1.7-0.3-2.8
				c0-0.6,0-1.1,0.1-1.7c0.1-0.5,0.2-1,0.3-1.5c-0.3,0-0.5,0.2-0.7,0.4L7.1,6.2c0-0.1,0-0.3,0-0.4C7,5.6,7,5.4,7,5.2
				C6.7,5.1,6.6,5,6.4,5z"/>
			<path class="st6" d="M13.3,11.3c-0.2,0.3-0.3,0.6-0.4,0.7c-0.5,1-0.9,1.7-1.3,2.1c0.1,0.1,0.3,0.1,0.4,0.2c0.8,0.4,1.5,0.7,2.2,1
				c0,0,0.1,0,0.1,0.1c0.3-0.5,0.6-1.1,0.9-1.8c0-0.1,0.1-0.1,0.1-0.2l0,0c1.2-2.4,2.2-3.6,3.2-3.6c0.8,0,1.4,0.5,1.8,1.4
				c0.4,0.9,0.7,2.2,0.7,3.8c0,0.7,0,1.3-0.1,1.9c0,0.3-0.1,0.5-0.1,0.7c0.6,0.1,1.1,0.2,1.4,0.2c0.4,0,0.8-0.1,1.1-0.4
				c0.1-0.4,0.1-0.9,0.1-1.4c0-1.5-0.2-2.9-0.5-4.2c-0.3-0.5-0.6-0.9-1-1.1c-0.8-0.6-2.8-1.3-6-2.2c-0.1,0-0.2-0.1-0.4-0.1
				c-0.1,0-0.3-0.1-0.4-0.1c0,0,0,0,0,0C14.5,9.1,13.9,10.1,13.3,11.3z"/>
		</g>
		<g>
			<g>
				<path class="st2" d="M20.9,18.8c0.2-0.6,0.3-1.2,0.4-1.8c0.1-0.6,0.1-1.2,0.1-1.9c0-1.6-0.2-2.9-0.7-3.8c-0.4-0.9-1-1.4-1.8-1.4
					c-0.9,0-2,1.2-3.2,3.6l0,0c0,0,0,0.1-0.1,0.2C14,17.2,12.5,19,11.2,19c-0.6,0-1.2-0.2-1.8-0.7c-0.6-0.4-1.1-1.1-1.6-1.9
					c-0.7-1.2-1.3-2.5-1.6-3.9c-0.4-1.4-0.6-2.8-0.6-4.3c0-1.1,0.1-1.9,0.3-2.4s0.5-0.8,1-0.8c0.1,0,0.3,0.1,0.6,0.3
					C7.7,5.6,8,5.8,8.4,6.2C8.2,6.7,8.1,7.2,8.1,7.8C8,8.3,7.9,8.9,7.9,9.5c0,1.7,0.2,3.1,0.7,4.1c0.5,1,1.1,1.5,1.9,1.5
					c0.5,0,0.9-0.2,1.3-0.6c0.4-0.4,0.9-1.2,1.4-2.3c0.1-0.2,0.2-0.4,0.4-0.7c1.9-3.7,3.5-5.5,4.8-5.5c0.5,0,1,0.1,1.5,0.4
					c0.5,0.3,0.9,0.7,1.4,1.3c0.8,1,1.4,2.2,1.8,3.7c0.4,1.5,0.6,3.1,0.6,4.8c0,1.2-0.1,2-0.4,2.6c-0.2,0.6-0.6,0.9-1.1,0.9
					c-0.2,0-0.4-0.1-0.7-0.2C21.4,19.3,21.2,19.1,20.9,18.8z"/>
			</g>
		</g>
	</g>
	<g>
		<path class="st3" d="M75.1,8.8v9.8h-3V8.8h-2.8v-3h8.5v3H75.1z"/>
		<path class="st3" d="M86.6,13.8c0,1.5-0.4,2.8-1.1,3.6c-0.7,0.9-1.7,1.3-3,1.3c-1.3,0-2.3-0.4-3-1.3c-0.7-0.9-1.1-2.1-1.1-3.6
			c0-1,0.2-1.8,0.5-2.5c0.3-0.7,0.8-1.3,1.4-1.6c0.6-0.4,1.3-0.6,2.1-0.6c0.8,0,1.6,0.2,2.2,0.6c0.6,0.4,1.1,1,1.4,1.7
			S86.6,12.9,86.6,13.8z M83.6,13.8c0-1.2-0.4-1.9-1.1-1.9c-0.7,0-1.1,0.7-1.1,2c0,1.4,0.4,2.1,1.1,2.1C83.3,16,83.6,15.3,83.6,13.8
			z"/>
		<path class="st3" d="M95.6,13.8c0,1.5-0.4,2.8-1.1,3.6c-0.7,0.9-1.7,1.3-3,1.3c-1.3,0-2.3-0.4-3-1.3c-0.7-0.9-1.1-2.1-1.1-3.6
			c0-1,0.2-1.8,0.5-2.5c0.3-0.7,0.8-1.3,1.4-1.6c0.6-0.4,1.3-0.6,2.1-0.6c0.8,0,1.6,0.2,2.2,0.6c0.6,0.4,1.1,1,1.4,1.7
			S95.6,12.9,95.6,13.8z M92.6,13.8c0-1.2-0.4-1.9-1.1-1.9c-0.7,0-1.1,0.7-1.1,2c0,1.4,0.4,2.1,1.1,2.1C92.2,16,92.6,15.3,92.6,13.8
			z"/>
		<path class="st3" d="M96.6,18.6V5h2.9v13.6H96.6z"/>
	</g>
</g>
</svg>
